<svg xmlns="http://www.w3.org/2000/svg" width="287" height="300" viewBox="0 0 287 300">
  <g id="Page-1" fill="none" fill-rule="evenodd">
    <g id="news">
      <g id="Group">
        <path id="Rectangle-1130-Copy-12" fill="#226385" d="M208 264.57V101H0v163.57C0 300 40 300 40 300h208s-40 0-40-35.43z"/>
        <path id="Rectangle-1130-Copy-13" fill="#EBF4F8" d="M203.6 259.9V105H4v157.9c0 33.8 38.4 33 38.4 33H223s-19.4 0-19.4-36z"/>
        <path id="Rectangle-1134-Copy-15" fill="#266484" d="M34 130h161.4v4H34z"/>
        <path id="Rectangle-1134-Copy-22" fill="#266484" d="M34 158h161.4v4H34z"/>
        <path id="Rectangle-1134-Copy-23" fill="#266484" d="M34 172h161.4v4H34z"/>
        <path id="Rectangle-1134-Copy-27" fill="#266484" d="M34 186h161.4v4H34z"/>
        <path id="Rectangle-1134-Copy-26" fill="#266484" d="M74 214h121.04v4H74z"/>
        <path id="Rectangle-1134-Copy-28" fill="#266484" d="M74 228h121.04v4H74z"/>
        <path id="Rectangle-1134-Copy-29" fill="#266484" d="M74 242h121.04v4H74z"/>
        <path id="Rectangle-1134-Copy-30" fill="#266484" d="M74 256h121.04v4H74z"/>
        <path id="Rectangle-2241-Copy-3" fill="#22D1F8" d="M34 214h30v46H34z"/>
        <path id="Rectangle-149" fill="#266484" d="M36 260h-2v-46h30v46H36zm2-4v-38h22v38H38z"/>
        <path id="Rectangle-1130-Copy-10" fill="#000" fill-opacity=".1" d="M208 264.57V100H0v164.57C0 300 40 300 40 300h208s-40 0-40-35.43z"/>
      </g>
      <g id="Group">
        <path id="Rectangle-1130-Copy-12" fill="#226385" d="M79 264.57V0h208v264.57C287 300 247 300 247 300H39s40 0 40-35.43z"/>
        <path id="Rectangle-1130-Copy-13" fill="#EBF4F8" d="M83.4 259.9V4H283v258.9c0 33.8-38.4 33-38.4 33H64s19.4 0 19.4-36z"/>
        <g id="Polygon-182-Copy-11-+-Polygon-185-Copy-11-Copy-Copy-Copy-Copy" fill="#266484">
          <path id="Polygon-182-Copy-11" d="M178.16 26.46l4.76-2.8v-5.6l-9.9 5.6 6.9 1.76-1.76 1.04zM173 29.5v-5.84 5.83zm13.14 10.6L183 42.02l-9.93-5.83V42l9.92 5.6v.02l9.83-5.8-6.7-1.74zm-3.2-22.04l9.83 5.6v5.83l-9.84-5.86v-5.6z"/>
          <path id="Polygon-185-Copy-11" d="M192.84 41.83L173 29.5v-5.85L192.84 36v5.83z"/>
        </g>
        <path id="Rectangle-1134-Copy-51" fill="#266484" d="M109 30h54v6h-54z"/>
        <path id="Rectangle-1134-Copy-52" fill="#266484" d="M203 30h54v6h-54z"/>
        <path id="Rectangle-1134-Copy-53" fill="#266484" d="M109 78.68h92v4h-92z"/>
        <path id="Rectangle-1134-Copy-54" fill="#266484" d="M109 92.08h92v4h-92z"/>
        <path id="Rectangle-1134-Copy-55" fill="#266484" d="M109 106.08h92v4h-92z"/>
        <path id="Rectangle-1134-Copy-56" fill="#266484" d="M109 120.08h92v4h-92z"/>
        <path id="Rectangle-1134-Copy-57" fill="#266484" d="M109.58 134.08H257v4H109.58z"/>
        <path id="Rectangle-1134-Copy-58" fill="#266484" d="M109.58 148.08H257v4H109.58z"/>
        <path id="Rectangle-1134-Copy-59" fill="#266484" d="M109.58 162.08H257v4H109.58z"/>
        <path id="Rectangle-1134-Copy-60" fill="#266484" d="M109.58 190.08H257v4H109.58z"/>
        <path id="Rectangle-1134-Copy-61" fill="#266484" d="M109.58 204.08H257v4H109.58z"/>
        <path id="Rectangle-1134-Copy-62" fill="#266484" d="M109.58 218.08H257v4H109.58z"/>
        <path id="Rectangle-1134-Copy-63" fill="#266484" d="M109.58 232.08H257v4H109.58z"/>
        <path id="Rectangle-1134-Copy-64" fill="#266484" d="M109.58 246.08H257v4H109.58z"/>
        <path id="Rectangle-1134-Copy-65" fill="#266484" d="M109.58 260.08H257v4H109.58z"/>
        <path id="Rectangle-2241-Copy-4" fill="#F9BA37" d="M211 78.08h46v46h-46z"/>
        <path id="Rectangle-149-Copy" fill="#226385" d="M213 124h-2V78h46v46h-44zm2-4V82h38v38h-38z"/>
      </g>
    </g>
  </g>
</svg>
