<svg xmlns="http://www.w3.org/2000/svg" width="288" height="300" viewBox="0 0 288 300"><title>Group</title><g id="Page-1" fill="none" fill-rule="evenodd"><g id="Landing-Page"><g id="Group"><path id="Rectangle-1130-Copy-9" fill="#EBF4F8" stroke="#266484" stroke-width="4" d="M208 264.57V100H0v164.57C0 300 40 300 40 300h208s-40 0-40-35.43z"/><path id="Rectangle-1134-Copy-15" fill="#266484" d="M30 130h212v4H30z"/><path id="Rectangle-1134-Copy-22" fill="#266484" d="M30 158h212v4H30z"/><path id="Rectangle-1134-Copy-23" fill="#266484" d="M30 172h212v4H30z"/><path id="Rectangle-1134-Copy-27" fill="#266484" d="M30 186h212v4H30z"/><path id="Rectangle-1134-Copy-26" fill="#266484" d="M70 214h212v4H70z"/><path id="Rectangle-1134-Copy-28" fill="#266484" d="M70 228h212v4H70z"/><path id="Rectangle-1134-Copy-29" fill="#266484" d="M70 242h212v4H70z"/><path id="Rectangle-1134-Copy-30" fill="#266484" d="M70 256h212v4H70z"/><path id="Rectangle-2241-Copy-3" fill="#22D1F8" d="M30 214h30v46H30z"/><path id="Rectangle-1130-Copy-10" fill="#000" fill-opacity=".1" d="M208 264.57V100H0v164.57C0 300 40 300 40 300h208s-40 0-40-35.43z"/><path id="Rectangle-1130-Copy-8" fill="#EBF4F8" stroke="#266484" stroke-width="4" d="M80 264.57V0h208v264.57C288 300 248 300 248 300H40s40 0 40-35.43z"/><g id="Polygon-182-Copy-11-+-Polygon-185-Copy-11-Copy-Copy-Copy" fill="#266484"><path id="Polygon-182-Copy-11" d="M179.16 26.46l4.76-2.8v-5.6l-9.9 5.6 6.9 1.76-1.76 1.04zM174 29.5v-5.84 5.83zm13.14 10.6L184 42.02l-9.93-5.83V42l9.92 5.6v.02l9.8-5.8-6.7-1.74zm-3.2-22.04l9.83 5.6v5.83l-9.84-5.9V18z"/><path id="Polygon-185-Copy-11" d="M193.84 41.83L174 29.5v-5.85L193.84 36v5.83z"/></g><path id="Rectangle-1134-Copy-25" fill="#266484" d="M110 30h54v6h-54z"/><path id="Rectangle-1134-Copy-31" fill="#266484" d="M204 30h54v6h-54z"/><path id="Rectangle-1134-Copy-35" fill="#266484" d="M110 78.68h92v4h-92z"/><path id="Rectangle-1134-Copy-32" fill="#266484" d="M110 92.08h92v4h-92z"/><path id="Rectangle-1134-Copy-33" fill="#266484" d="M110 106.08h92v4h-92z"/><path id="Rectangle-1134-Copy-34" fill="#266484" d="M110 120.08h92v4h-92z"/><path id="Rectangle-1134-Copy-36" fill="#266484" d="M110.58 134.08H258v4H110.58z"/><path id="Rectangle-1134-Copy-37" fill="#266484" d="M110.58 148.08H258v4H110.58z"/><path id="Rectangle-1134-Copy-38" fill="#266484" d="M110.58 162.08H258v4H110.58z"/><path id="Rectangle-1134-Copy-42" fill="#266484" d="M110.58 190.08H258v4H110.58z"/><path id="Rectangle-1134-Copy-40" fill="#266484" d="M110.58 204.08H258v4H110.58z"/><path id="Rectangle-1134-Copy-41" fill="#266484" d="M110.58 218.08H258v4H110.58z"/><path id="Rectangle-1134-Copy-45" fill="#266484" d="M110.58 232.08H258v4H110.58z"/><path id="Rectangle-1134-Copy-43" fill="#266484" d="M110.58 246.08H258v4H110.58z"/><path id="Rectangle-1134-Copy-44" fill="#266484" d="M110.58 260.08H258v4H110.58z"/><path id="Rectangle-2241-Copy-2" fill="#F9BA37" d="M212 78.08h46v46h-46z"/><path id="Shape" fill="#266484" d="M212 82.08l4-4v46l-4-4h46l-4 4v-46l4 4h-46zm0-4h46v46h-46v-46zM30 218l4-4v46l-4-4h30l-4 4v-46l4 4H30zm0-4h30v46H30v-46z"/></g></g></g></svg>